<svg xmlns="http://www.w3.org/2000/svg" height="32" viewBox="0 0 73 46.03"><defs><style>.cls-1{fill:#7CCF35;}</style></defs><g id="图层_2" data-name="图层 2"><g id="图层_1-2" data-name="图层 1"><path class="cls-1" d="M3.77,33.53,0,45.83H3l.68-2.29H7.32L8,45.83h3.23L7.44,33.53Zm.62,7.53,1.12-3.82,1.11,3.82Zm13.9-.84-.14-.14.28-.11a3.18,3.18,0,0,0,.93-.65,3,3,0,0,0,.62-1,3.54,3.54,0,0,0,.21-1.26,3.62,3.62,0,0,0-.34-1.65,2.87,2.87,0,0,0-1-1.13,4.14,4.14,0,0,0-1.5-.6,9.76,9.76,0,0,0-1.87-.17H11.64v12.3h2.95V41h.08a1.51,1.51,0,0,1,.83.21,1.42,1.42,0,0,1,.53.66l1.79,3.93h3.43l-2.16-4.39a5,5,0,0,0-.79-1.22ZM17,37.86a1.3,1.3,0,0,1-.37.41,1.85,1.85,0,0,1-.61.26,3.69,3.69,0,0,1-.87.1h-.57V36h.64a2.8,2.8,0,0,1,1.5.31,1,1,0,0,1,.41.94,1.14,1.14,0,0,1-.13.57ZM29.89,35A4.45,4.45,0,0,0,28,33.89a8.34,8.34,0,0,0-2.52-.35h-3.9v12.3H25a8.33,8.33,0,0,0,2.85-.44A4.94,4.94,0,0,0,31,42.1a8.51,8.51,0,0,0,.36-2.56A8.64,8.64,0,0,0,31,36.9,4.73,4.73,0,0,0,29.89,35Zm-2.41,7.48a2.87,2.87,0,0,1-2.27.84h-.65V36.05h.8a3.63,3.63,0,0,1,1.42.24,2.08,2.08,0,0,1,.86.66,3.18,3.18,0,0,1,.47,1.12,8.56,8.56,0,0,1,.15,1.61,4.14,4.14,0,0,1-.78,2.8Zm11-1.12a4.13,4.13,0,0,1-.12,1.08,1.52,1.52,0,0,1-.32.65,1.12,1.12,0,0,1-.49.34,2.47,2.47,0,0,1-.83.12,2.57,2.57,0,0,1-.87-.13,1.3,1.3,0,0,1-.52-.38,1.47,1.47,0,0,1-.3-.63,3.86,3.86,0,0,1-.09-1V33.53H32v8a6.42,6.42,0,0,0,.24,1.82,3.57,3.57,0,0,0,.83,1.44,3.73,3.73,0,0,0,1.47.9,6.6,6.6,0,0,0,2.1.3,6.08,6.08,0,0,0,2-.3,3.91,3.91,0,0,0,2.5-2.45,6.28,6.28,0,0,0,.33-2.07V33.53h-3v7.82M42.93,36h2.65v7.34H42.93v2.49h8.28V43.34H48.57V36h2.64V33.53H42.93V36m16.5,4.53-3.29-7H52.8v12.3h2.74V38.69l3.32,7.14h3.32V33.53H59.42v7M71.72,35a4.62,4.62,0,0,0-3.84-1.65,5.52,5.52,0,0,0-2,.38,4.48,4.48,0,0,0-1.69,1.19,5.61,5.61,0,0,0-1.12,2,8.93,8.93,0,0,0-.4,2.84,7.35,7.35,0,0,0,1.27,4.64A4.58,4.58,0,0,0,67.73,46a5.33,5.33,0,0,0,2-.38,4.58,4.58,0,0,0,1.7-1.18,5.61,5.61,0,0,0,1.12-2,9.22,9.22,0,0,0,.4-2.84A7.44,7.44,0,0,0,71.73,35Zm-1.94,6.41a3.83,3.83,0,0,1-.39,1.13,1.68,1.68,0,0,1-.63.64,1.88,1.88,0,0,1-1,.22,1.64,1.64,0,0,1-1.57-.84,6.13,6.13,0,0,1-.53-2.9A8.94,8.94,0,0,1,65.84,38a3.72,3.72,0,0,1,.4-1.14,1.76,1.76,0,0,1,.63-.64,1.92,1.92,0,0,1,.94-.22,1.67,1.67,0,0,1,1.58.84,6.19,6.19,0,0,1,.52,2.91,8.82,8.82,0,0,1-.13,1.63Zm-19.1-13a14.26,14.26,0,0,1-10-3.94,29.26,29.26,0,0,1-4.61-5.73,29.37,29.37,0,0,1-4.62,5.73,14.37,14.37,0,0,1-10.9,3.92A14.43,14.43,0,0,1,6,14.19,14.44,14.44,0,0,1,20.6,0,16,16,0,0,1,32,4.47,27.56,27.56,0,0,1,36,9.35a28.83,28.83,0,0,1,4.06-4.88A16.06,16.06,0,0,1,51.47,0,14.44,14.44,0,0,1,66.12,14.19,14.44,14.44,0,0,1,51.54,28.37l-.87,0ZM39,14a31.59,31.59,0,0,0,5,6.76,9.31,9.31,0,0,0,7.3,2.61h.13a9.43,9.43,0,0,0,9.64-9.18A9.43,9.43,0,0,0,51.47,5a11.1,11.1,0,0,0-8,3.13A29.37,29.37,0,0,0,39,14ZM20.61,5A9.43,9.43,0,0,0,11,14.16a9.43,9.43,0,0,0,9.64,9.18h.13A9.29,9.29,0,0,0,28,20.73,31.87,31.87,0,0,0,33.1,14a29.37,29.37,0,0,0-4.53-5.86A11.1,11.1,0,0,0,20.6,5Z"/><path class="cls-1" d="M52.14,12.35V9.64H49.32v2.71H46.59v2.82h2.72v2.74h2.82V15.18h2.72V12.36H52.14m-35.6,0h8.93v2.9H16.54Z"/></g></g></svg>